<?xml version="1.0" encoding="utf-8"?>
<!-- Generator: Adobe Illustrator 21.0.2, SVG Export Plug-In . SVG Version: 6.00 Build 0)  -->
<svg version="1.1" id="Layer_1" xmlns="http://www.w3.org/2000/svg" xmlns:xlink="http://www.w3.org/1999/xlink" x="0px" y="0px"
	 viewBox="0 0 1772.1 689.6" style="enable-background:new 0 0 1772.1 689.6;" xml:space="preserve">
<style type="text/css">
	.st0{fill:#00DFFF;}
	.st1{fill:#06D2FE;}
	.st2{fill:#01BAFC;}
	.st3{fill:#019EFA;}
	.st4{fill:#0688F8;}
	.st5{fill:#0465F5;}
</style>
<path class="st0" d="M26.5,477.5L26.5,477.5C11.9,477.5,0,465.6,0,451V312.6c0-14.6,11.9-26.5,26.5-26.5h0.1
	c14.6,0,26.5,11.9,26.5,26.5v138.5C53,465.6,41,477.5,26.5,477.5z"/>
<path class="st1" d="M114.8,581.9L114.8,581.9c-14.6,0-26.5-11.9-26.5-26.5V347.1c0-14.6,11.9-26.5,26.5-26.5l0,0
	c14.6,0,26.5,11.9,26.5,26.5v208.3C141.3,570,129.4,581.9,114.8,581.9z"/>
<path class="st2" d="M203.3,477.5L203.3,477.5c-14.6,0-26.5-11.9-26.5-26.5V194.5c0-14.6,11.9-26.5,26.5-26.5l0,0
	c14.6,0,26.5,11.9,26.5,26.5V451C229.8,465.6,217.9,477.5,203.3,477.5z"/>
<path class="st3" d="M292,689.6L292,689.6c-14.4,0-26.1-11.8-26.1-26.1V137.4c0-14.4,11.8-26.1,26.1-26.1l0,0
	c14.4,0,26.1,11.8,26.1,26.1v526.1C318.1,677.9,306.3,689.6,292,689.6z"/>
<path class="st4" d="M380.7,456.5L380.7,456.5c-14.6,0-26.6-12-26.6-26.6V26.6c0-14.6,12-26.6,26.6-26.6l0,0
	c14.6,0,26.6,12,26.6,26.6v403.3C407.2,444.5,395.3,456.5,380.7,456.5z"/>
<g>
	<path class="st5" d="M549.9,449.2V271.6h-53.3v-31.3h143.9v31.3h-53v177.6H549.9z"/>
	<path class="st5" d="M751,452.2c-50.7,0-76.9-27.7-76.9-86.4c0-56.3,31.3-85.5,75.1-85.5c41.1,0,64.4,26.2,64.4,66.5
		c0,8.3-0.3,17.3-1.8,29.2H710.2c1.2,31.6,14.9,46.5,45,46.5c17.6,0,30.7-7.7,37.3-14l16.1,26.5C796.3,444.5,779.6,452.2,751,452.2z
		 M710.8,350.3h67.9v-6.6c0-22.6-9.8-34.9-31-34.9C727.2,308.9,712,323.2,710.8,350.3z"/>
	<path class="st5" d="M868.4,449.2v-166h28.3l7.7,22.1h1.2c6.9-14.6,21.8-25.3,42.6-25.3c5.7,0,11.3,0.6,14.9,1.5v36.7
		c-6-1.2-12.8-1.8-18.8-1.8c-14.9,0-30.7,5.7-39.6,16.4v116.5h-36.3V449.2z"/>
	<path class="st5" d="M1005.2,449.2v-166h29.5l6.6,16.4h1.2c8-11,23.5-20,43.5-20c25,0,36.4,10.7,42.3,23.8h1.2
		c7.7-12.5,24.4-23.8,48.9-23.8c32.5,0,51,17.9,51,55.1v114.4h-36.7V341.3c0-21.5-10.7-30.4-25.6-30.4c-14.6,0-26.8,9.8-31.3,22.1
		v116.2h-37V344.3c0-22.1-9.2-33.4-26.8-33.4c-14.6,0-26.2,11-30.1,23.2v115L1005.2,449.2L1005.2,449.2z"/>
	<path class="st5" d="M1354.8,452.2c-54.5,0-72.4-34.3-72.4-85.2c0-51.3,20.6-86.7,73.9-86.7c54.8,0,72.4,34,72.4,85.2
		S1407.8,452.2,1354.8,452.2z M1356.2,422.7c26.2,0,34.9-18.2,34.9-55.4c0-38.1-10.4-57.5-36.7-57.5c-24.4,0-34.3,17.9-34.3,55.4
		C1320.2,403,1330.3,422.7,1356.2,422.7z"/>
	<path class="st5" d="M1482.3,449.2v-166h28.3l7.5,16.4h1.2c8-9.8,25-20.3,45.6-20.3c32.8,0,51.9,17.9,52.2,55.1v114.7h-37V342.5
		c0-20.3-9.5-31.6-27.4-31.6c-15.8,0-28.3,9.8-33.7,23.2v115L1482.3,449.2L1482.3,449.2z"/>
	<path class="st5" d="M1729.3,450.7c-28,0-46.5-14.3-46.5-51.3v-87.9h-22.6v-22.9l22.6-7.5l12.2-40.5h23.8v42.6h43.2v28.3h-43.2
		v87.9c0,14.3,7.7,20.9,20,20.9c9.5,0,17.9-2.7,23.5-6.9l9.8,28C1766.3,445.3,1754.1,450.7,1729.3,450.7z"/>
</g>
</svg>
